<svg xmlns="http://www.w3.org/2000/svg" width="17.568" height="20.631" viewBox="0 0 17.568 20.631">
  <g id="surface1" transform="translate(0 0.001)">
    <path id="Path_33" data-name="Path 33" d="M124.372,158.457a3.931,3.931,0,1,0,3.931,3.931A3.935,3.935,0,0,0,124.372,158.457Zm2.334,3.19-2.816,2.816a.605.605,0,0,1-.856,0l-1.076-1.076a.605.605,0,1,1,.856-.856l.648.648,2.388-2.388a.605.605,0,1,1,.856.856Zm0,0" transform="translate(-115.588 -152.073)" fill="#ff5860"/>
    <path id="Path_34" data-name="Path 34" d="M17.548,5.6V5.581c-.009-.2-.015-.408-.019-.641A2.187,2.187,0,0,0,15.47,2.8,8.485,8.485,0,0,1,9.7.363L9.682.351a1.32,1.32,0,0,0-1.794,0L7.874.363A8.485,8.485,0,0,1,2.1,2.8,2.186,2.186,0,0,0,.04,4.94c0,.232-.01.441-.019.641v.037a22.359,22.359,0,0,0,.9,8.161,10.389,10.389,0,0,0,2.492,3.882,13.038,13.038,0,0,0,4.877,2.885,1.511,1.511,0,0,0,.2.054,1.476,1.476,0,0,0,.58,0,1.515,1.515,0,0,0,.2-.055,13.047,13.047,0,0,0,4.872-2.887,10.4,10.4,0,0,0,2.492-3.883A22.392,22.392,0,0,0,17.548,5.6ZM8.784,15.456a5.141,5.141,0,1,1,5.141-5.141A5.147,5.147,0,0,1,8.784,15.456Zm0,0" transform="translate(0 0)" fill="#ff5860"/>
  </g>
</svg>
