<svg xmlns="http://www.w3.org/2000/svg" width="17.568" height="20.63" viewBox="0 0 17.568 20.63">
  <path id="Subtraction_3" data-name="Subtraction 3" d="M2.785-4.37A1.513,1.513,0,0,1,2.494-4.4a1.494,1.494,0,0,1-.2-.054A13.039,13.039,0,0,1-2.583-7.338,10.392,10.392,0,0,1-5.076-11.22a22.352,22.352,0,0,1-.9-8.158v-.04c.009-.2.015-.413.019-.641A2.186,2.186,0,0,1-3.9-22.2a8.485,8.485,0,0,0,5.775-2.434l.014-.013a1.325,1.325,0,0,1,.9-.352,1.328,1.328,0,0,1,.9.352l.013.013A8.485,8.485,0,0,0,9.47-22.2a2.185,2.185,0,0,1,2.058,2.142c0,.229.01.439.019.641v.016a22.39,22.39,0,0,1-.908,8.179A10.4,10.4,0,0,1,8.148-7.34,13.055,13.055,0,0,1,3.275-4.453a1.5,1.5,0,0,1-.2.055A1.509,1.509,0,0,1,2.785-4.37ZM-.05-12.23h0L.968-11.211l-.986.986a.053.053,0,0,0,0,.076c.011.012.011.012.023.012a2.339,2.339,0,0,0,.481.054,2.259,2.259,0,0,0,1.588-.635,1.522,1.522,0,0,0,.307-1.544l-.011-.057c-.007-.039-.014-.078-.022-.108.368-.391,3.034-3.064,3.4-3.406l.142.032a2.557,2.557,0,0,0,.63.1,1.24,1.24,0,0,0,.915-.383A2.3,2.3,0,0,0,8-18.135a.049.049,0,0,0-.013-.031.035.035,0,0,0-.021-.013.083.083,0,0,0-.055.011l-.985.964L5.909-18.223l.986-.986a.053.053,0,0,0,0-.077c-.011-.011-.011-.011-.022-.011a2.294,2.294,0,0,0-.492-.053,2.329,2.329,0,0,0-1.579.623A1.524,1.524,0,0,0,4.5-17.182c.005.023.01.049.015.074s.012.065.019.09c-.344.365-2.984,3.018-3.4,3.407l-.02-.005c-.037-.009-.076-.019-.122-.028a2.6,2.6,0,0,0-.616-.094,1.273,1.273,0,0,0-.929.39,2.267,2.267,0,0,0-.57,2.048.059.059,0,0,0,.066.044.037.037,0,0,0,.022-.011l.986-.963Z" transform="translate(6 25)" fill="#ff5860"/>
</svg>
