<svg xmlns="http://www.w3.org/2000/svg" width="17.568" height="20.63" viewBox="0 0 17.568 20.63">
  <path id="Subtraction_4" data-name="Subtraction 4" d="M2.785-4.37A1.513,1.513,0,0,1,2.494-4.4a1.494,1.494,0,0,1-.2-.054A13.039,13.039,0,0,1-2.583-7.338,10.392,10.392,0,0,1-5.076-11.22a22.352,22.352,0,0,1-.9-8.158v-.04c.009-.2.015-.413.019-.641A2.186,2.186,0,0,1-3.9-22.2a8.485,8.485,0,0,0,5.775-2.434l.014-.013a1.325,1.325,0,0,1,.9-.352,1.328,1.328,0,0,1,.9.352l.013.013A8.485,8.485,0,0,0,9.47-22.2a2.185,2.185,0,0,1,2.058,2.142c0,.229.01.439.019.641v.016a22.39,22.39,0,0,1-.908,8.179A10.4,10.4,0,0,1,8.148-7.34,13.055,13.055,0,0,1,3.275-4.453a1.5,1.5,0,0,1-.2.055A1.509,1.509,0,0,1,2.785-4.37ZM1.435-14.68A1.973,1.973,0,0,0-.534-12.712v2.363A1.183,1.183,0,0,0,.647-9.167H5.372a1.183,1.183,0,0,0,1.182-1.182v-2.363A1.974,1.974,0,0,0,4.585-14.68H4.492l-.083.04a3.158,3.158,0,0,1-1.4.329,3.158,3.158,0,0,1-1.4-.329l-.083-.04Zm1.513-5.561A2.324,2.324,0,0,0,.626-17.92,2.323,2.323,0,0,0,2.948-15.6a2.323,2.323,0,0,0,2.32-2.32A2.326,2.326,0,0,0,2.948-20.241Z" transform="translate(6 25)" fill="#ff5860"/>
</svg>
