<svg xmlns="http://www.w3.org/2000/svg" width="17.568" height="20.63" viewBox="0 0 17.568 20.63">
  <path id="Subtraction_2" data-name="Subtraction 2" d="M2.785-4.37A1.513,1.513,0,0,1,2.494-4.4a1.494,1.494,0,0,1-.2-.054A13.039,13.039,0,0,1-2.583-7.338,10.392,10.392,0,0,1-5.076-11.22a22.352,22.352,0,0,1-.9-8.158v-.04c.009-.2.015-.413.019-.641A2.186,2.186,0,0,1-3.9-22.2a8.485,8.485,0,0,0,5.775-2.434l.014-.013a1.325,1.325,0,0,1,.9-.352,1.328,1.328,0,0,1,.9.352l.013.013A8.485,8.485,0,0,0,9.47-22.2a2.185,2.185,0,0,1,2.058,2.142c0,.229.01.439.019.641v.016a22.39,22.39,0,0,1-.908,8.179A10.4,10.4,0,0,1,8.148-7.34,13.055,13.055,0,0,1,3.275-4.453a1.5,1.5,0,0,1-.2.055A1.509,1.509,0,0,1,2.785-4.37Zm-.105-16.4a4.169,4.169,0,0,0-2.247.658A4.152,4.152,0,0,0-1.4-17.485a4.153,4.153,0,0,0,.56,3.15A4.2,4.2,0,0,0,.432-13.064v.721a.951.951,0,0,0-.547.486.949.949,0,0,0-.044.73.944.944,0,0,0,.2.333A.957.957,0,0,0-.21-10.1.954.954,0,0,0,.1-9.437a.962.962,0,0,0,.648.251H4.613a.964.964,0,0,0,.965-.957.958.958,0,0,0-.251-.652.946.946,0,0,0,.25-.686.949.949,0,0,0-.31-.664.954.954,0,0,0-.333-.2v-.721a4.152,4.152,0,0,0,1.832-2.623,4.152,4.152,0,0,0-.56-3.15A4.164,4.164,0,0,0,2.679-20.767ZM4.613-9.829H.753a.322.322,0,0,1-.321-.321.322.322,0,0,1,.321-.322H4.613a.322.322,0,0,1,.321.322A.322.322,0,0,1,4.613-9.829Zm0-1.286H.753a.322.322,0,0,1-.321-.322.322.322,0,0,1,.321-.321H4.613a.322.322,0,0,1,.321.321A.322.322,0,0,1,4.613-11.115ZM2.362-12.4H1.076v-.842a.326.326,0,0,0-.161-.278A3.512,3.512,0,0,1-.732-15.668a3.511,3.511,0,0,1,.351-2.683A3.544,3.544,0,0,1,2.68-20.12a3.542,3.542,0,0,1,3.54,3.533,3.545,3.545,0,0,1-1.769,3.064.323.323,0,0,0-.16.278v.84H3.005v-1.8L4.2-15.39l-.454-.455L2.683-14.786,1.625-15.845l-.455.455L2.362-14.2v1.8Z" transform="translate(6 25)" fill="#ff5860"/>
</svg>
