<?xml version="1.0"?>
<svg xmlns="http://www.w3.org/2000/svg" width="512" height="512" viewBox="0 0 128 128"><path d="M121.5,113.75h-9.829V100.5a4.751,4.751,0,0,0-3-4.407V43.908l5.719-1.6a1.751,1.751,0,0,0,1.274-1.807l-.824-11.723a1.8,1.8,0,0,0-.061-.349l-3.347-11.954a1.887,1.887,0,0,0-.13-.33L105.918,5.7a1.75,1.75,0,0,0-2.027-.883l-7,1.959A1.751,1.751,0,0,0,95.62,8.582L96.444,20.3a1.875,1.875,0,0,0,.061.349l.393,1.4-27.837,7.8A7.733,7.733,0,0,0,56.627,33.33L13.608,45.375A1.748,1.748,0,0,0,12.4,47.532l1.555,5.55V95.75H12.7a1.75,1.75,0,0,0-1.75,1.75v4.25H9.7a1.75,1.75,0,0,0-1.75,1.75v10.25H6.5a1.75,1.75,0,0,0-1.75,1.75v6a1.75,1.75,0,0,0,1.75,1.75h115a1.75,1.75,0,0,0,1.75-1.75v-6A1.75,1.75,0,0,0,121.5,113.75Zm-27.985,0V109.5a1.751,1.751,0,0,0-1.75-1.75H87.383L81.7,81.31h2.336a1.75,1.75,0,0,0,1.75-1.75v-6a1.75,1.75,0,0,0-1.75-1.75H79.654L72.537,38.732,99.457,31.2l.4,1.41a1.847,1.847,0,0,0,.129.331L105.17,43v53.09a4.75,4.75,0,0,0-3,4.406v13.25Zm-35-72.575a7.755,7.755,0,0,0,2.222,1.552L54.476,71.81H51.917Zm10.974,0L76.074,71.81h-2.55L67.265,42.727A7.766,7.766,0,0,0,69.487,41.176Zm.457,30.634H58.056L64,44.191Zm-20.2,3.5H82.283v2.5H45.717v-2.5Zm22.24,6,5.686,26.44H50.327l5.686-26.44Zm9.267,26.44L75.567,81.31h2.55L83.8,107.75ZM52.433,81.31l-5.687,26.44h-2.56l5.688-26.44ZM42.017,111.25h48v2.5H37.985v-2.5Zm63.654-10.75a1.25,1.25,0,0,1,2.5,0v13.25h-2.5ZM103.46,8.57l4.648,9.019L111.359,29.2l.712,10.122-4.248,1.189-4.649-9.019-3.25-11.611L99.212,9.759ZM98.513,27.827,71.8,35.3l-.118-.553h0a7.682,7.682,0,0,0-.474-1.864l26.631-7.459ZM64,31.458a4.25,4.25,0,1,1-4.25,4.25A4.255,4.255,0,0,1,64,31.458ZM55.789,37.2l-.594,2.76L16.913,50.683l-.676-2.41ZM17.451,54.167,54.362,43.826,48.337,71.81h-4.37a1.75,1.75,0,0,0-1.75,1.75v6a1.75,1.75,0,0,0,1.75,1.75h2.326l-5.687,26.44H36.235a1.751,1.751,0,0,0-1.75,1.75v4.25H23.451V103.5a1.75,1.75,0,0,0-1.75-1.75h-1.25V97.5a1.75,1.75,0,0,0-1.75-1.75h-1.25Zm-3,45.083h2.5v2.5h-2.5Zm-3,6h8.5v8.5h-8.5Zm108.3,14.5H8.25v-2.5h111.5Z"/></svg>
